<svg preserveAspectRatio="none" width="100%" height="100%" overflow="visible" style="display: block;" viewBox="0 0 113.198 58.9984" fill="none" xmlns="http://www.w3.org/2000/svg">
<g id="Ellipse 10">
<path d="M111.801 38.2395C112.946 37.7899 113.513 36.4954 113.02 35.3688C107.83 23.4954 98.8644 13.6396 87.4855 7.35451C75.4558 0.710024 61.484 -1.52666 47.9813 1.03046C34.4786 3.58759 22.2921 10.7781 13.5249 21.361C5.23201 31.3715 0.490641 43.8233 0.00155115 56.7721C-0.0448596 58.0008 0.956293 58.9982 2.18591 58.9983L6.82498 58.9984C8.05459 58.9985 9.04624 58.0011 9.10109 56.7727C9.5847 45.9425 13.5846 35.5407 20.5264 27.1612C27.9425 18.2091 38.2511 12.1267 49.673 9.96359C61.095 7.80051 72.9137 9.69253 83.0896 15.3131C92.6146 20.5742 100.141 28.7931 104.551 38.6966C105.051 39.8199 106.339 40.3855 107.483 39.9359L111.801 38.2395Z" fill="url(#paint0_linear_37_1391)"/>
<path d="M111.801 38.2395C112.946 37.7899 113.513 36.4954 113.02 35.3688C107.83 23.4954 98.8644 13.6396 87.4855 7.35451C75.4558 0.710024 61.484 -1.52666 47.9813 1.03046C34.4786 3.58759 22.2921 10.7781 13.5249 21.361C5.23201 31.3715 0.490641 43.8233 0.00155115 56.7721C-0.0448596 58.0008 0.956293 58.9982 2.18591 58.9983L6.82498 58.9984C8.05459 58.9985 9.04624 58.0011 9.10109 56.7727C9.5847 45.9425 13.5846 35.5407 20.5264 27.1612C27.9425 18.2091 38.2511 12.1267 49.673 9.96359C61.095 7.80051 72.9137 9.69253 83.0896 15.3131C92.6146 20.5742 100.141 28.7931 104.551 38.6966C105.051 39.8199 106.339 40.3855 107.483 39.9359L111.801 38.2395Z" fill="url(#paint1_linear_37_1391)"/>
</g>
<defs>
<linearGradient id="paint0_linear_37_1391" x1="2.18591" y1="63.4529" x2="121.299" y2="63.4529" gradientUnits="userSpaceOnUse">
<stop offset="0.574676" stop-color="#AFEEF7"/>
<stop offset="1" stop-color="#7084F5"/>
</linearGradient>
<linearGradient id="paint1_linear_37_1391" x1="88.4595" y1="29.5001" x2="29.4595" y2="29.5001" gradientUnits="userSpaceOnUse">
<stop stop-color="#81E1C5" stop-opacity="0"/>
<stop offset="1" stop-color="#81E1C5"/>
</linearGradient>
</defs>
</svg>
