<svg preserveAspectRatio="none" width="100%" height="100%" overflow="visible" style="display: block;" viewBox="0 0 7.5 15" fill="none" xmlns="http://www.w3.org/2000/svg">
<g id="Group">
<path id="Vector" d="M6 8.26695V2.25C6 1.00732 4.99268 0 3.75 0C2.50732 0 1.5 1.00732 1.5 2.25V8.26695C0.59415 8.95148 0 10.0271 0 11.25C0 13.321 1.67895 15 3.75 15C5.82105 15 7.5 13.321 7.5 11.25C7.5 10.0271 6.90585 8.95155 6 8.26695ZM3.75 12.75C2.92155 12.75 2.25 12.0784 2.25 11.25C2.25 10.6208 2.6382 10.084 3.1875 9.86123V2.25C3.1875 1.93943 3.43943 1.6875 3.75 1.6875C4.06057 1.6875 4.3125 1.93943 4.3125 2.25V9.86123C4.8618 10.0839 5.25 10.6208 5.25 11.25C5.25 12.0784 4.57845 12.75 3.75 12.75Z" fill="var(--fill-0, #E4EBF6)"/>
<path id="Vector_2" opacity="0.4" d="M3.75 12.75C2.92155 12.75 2.25 12.0784 2.25 11.25C2.25 10.6208 2.6382 10.084 3.1875 9.86123V2.25C3.1875 1.93943 3.43943 1.6875 3.75 1.6875C4.06057 1.6875 4.3125 1.93943 4.3125 2.25V9.86123C4.8618 10.0839 5.25 10.6208 5.25 11.25C5.25 12.0784 4.57845 12.75 3.75 12.75Z" fill="var(--fill-0, #E4EBF6)"/>
</g>
</svg>
