<svg preserveAspectRatio="none" width="100%" height="100%" overflow="visible" style="display: block;" viewBox="0 0 13.5715 15" fill="none" xmlns="http://www.w3.org/2000/svg">
<g id="Group">
<path id="Vector" d="M6.08456 2.20786C6.08243 2.18536 6.07144 2.16591 6.07144 2.14286V0.714286C6.07144 0.319479 6.39126 0 6.78573 0C7.18019 0 7.50001 0.319479 7.50001 0.714286V2.14286C7.50001 2.17015 7.48746 2.1933 7.48449 2.21981C9.23686 2.53871 10.5492 4.06298 10.7288 5.85916L10.967 8.24162C11.0166 8.73744 11.2769 9.21465 11.7206 9.4414C12.2488 9.71131 12.5868 10.3003 12.4805 10.9541C12.3663 11.6565 11.7067 12.1429 10.9951 12.1429H2.57639C1.86476 12.1429 1.20519 11.6565 1.09097 10.9541C0.984643 10.3003 1.32264 9.71131 1.85081 9.4414C2.29454 9.21466 2.55486 8.73745 2.60442 8.24162L2.85894 5.69654C3.03685 3.91719 4.37933 2.51465 6.08456 2.20786Z" fill="var(--fill-0, #E4EBF6)"/>
<path id="Vector_2" opacity="0.4" d="M3.50655 0.920741C3.61536 1.08536 3.57038 1.30718 3.40576 1.416C1.91511 2.40303 0.932964 3.98575 0.711492 5.75891C0.688821 5.93958 0.535014 6.07141 0.357485 6.07141C0.342835 6.07141 0.327842 6.07071 0.312842 6.06862C0.117178 6.0442 -0.0216292 5.86563 0.00278508 5.66963C0.250064 3.69069 1.34696 1.92311 3.01164 0.820298C3.17591 0.712176 3.39739 0.756819 3.50655 0.920741ZM10.5598 0.820298C10.3948 0.712176 10.1733 0.756819 10.0649 0.920741C9.95605 1.08536 10.001 1.30718 10.1657 1.416C11.6563 2.40303 12.6384 3.98575 12.8599 5.75891C12.8826 5.93958 13.0364 6.07141 13.2139 6.07141C13.2286 6.07141 13.2436 6.07071 13.2586 6.06862C13.4542 6.0442 13.593 5.86563 13.5686 5.66963C13.3213 3.69069 12.2245 1.92311 10.5598 0.820298ZM6.78571 15C7.57467 15 8.21428 14.3604 8.21428 13.5714H5.35714C5.35714 14.3604 5.99674 15 6.78571 15Z" fill="var(--fill-0, #E4EBF6)"/>
</g>
</svg>
