<svg preserveAspectRatio="none" width="100%" height="100%" overflow="visible" style="display: block;" viewBox="0 0 11.0003 11" fill="none" xmlns="http://www.w3.org/2000/svg">
<g id="Group">
<path id="Vector" opacity="0.3" d="M0.207426 4.35167L4.38932 0.172332C4.83804 -0.276088 5.51993 0.218521 5.36078 0.877018L5.33936 0.965672L2.72958 3.57394C2.21225 4.091 2.05978 4.86773 2.33394 5.5612H0.600956C0.0462602 5.5612 -0.211178 4.77005 0.207426 4.35167ZM2.19959 10.1403C2.05377 10.8108 2.76151 11.2834 3.19603 10.8057L4.55384 9.31304L5.13046 6.66124H3.90102C3.57614 6.66124 3.27297 6.56681 3.01311 6.40034L2.19959 10.1403Z" fill="var(--fill-0, #E4EBF6)"/>
<path id="Vector_2" d="M3.50767 4.35167L7.68956 0.172332C8.13828 -0.276088 8.82017 0.218521 8.66102 0.877018L7.6955 4.87186H10.3992C10.94 4.87186 11.2046 5.62969 10.8138 6.05934L6.49627 10.8057C6.06175 11.2834 5.35401 10.8108 5.49983 10.1403L6.4959 5.56121H3.9012C3.3465 5.56121 3.08906 4.77005 3.50767 4.35167Z" fill="var(--fill-0, #E4EBF6)"/>
</g>
</svg>
