<svg preserveAspectRatio="none" width="100%" height="100%" overflow="visible" style="display: block;" viewBox="0 0 8.84711 15.0001" fill="none" xmlns="http://www.w3.org/2000/svg">
<g id="electricity">
<path id="Vector" d="M3.21206 10.72H5.62708C7.6396 10.72 8.84711 9.27101 8.84711 7.49999V3.4025C8.84711 2.55724 8.1548 1.86493 7.30955 1.86493H1.53765C0.692393 1.86493 8.29459e-05 2.55724 8.29459e-05 3.4025V7.49999C-0.00796713 9.27101 1.19954 10.72 3.21206 10.72Z" fill="var(--fill-0, #E4EBF6)"/>
<path id="Vector_2" opacity="0.4" d="M3.011 0.603763V1.86494H1.80349V0.603763C1.80349 0.273709 2.07719 6.67572e-06 2.40725 6.67572e-06C2.7373 6.67572e-06 3.011 0.273709 3.011 0.603763Z" fill="var(--fill-0, #E4EBF6)"/>
<path id="Vector_3" opacity="0.4" d="M7.03594 0.603763V1.86494H5.82842V0.603763C5.82842 0.273709 6.10213 6.67572e-06 6.43218 6.67572e-06C6.76223 6.67572e-06 7.03594 0.273709 7.03594 0.603763Z" fill="var(--fill-0, #E4EBF6)"/>
<path id="Vector_4" opacity="0.4" d="M5.02347 10.72V14.3963C5.02347 14.7263 4.74977 15 4.41971 15C4.08966 15 3.81596 14.7263 3.81596 14.3963V10.72H5.02347Z" fill="var(--fill-0, #E4EBF6)"/>
</g>
</svg>
