<svg preserveAspectRatio="none" width="100%" height="100%" overflow="visible" style="display: block;" viewBox="0 0 10.4999 15" fill="none" xmlns="http://www.w3.org/2000/svg">
<g id="Group">
<path id="Vector" d="M4.7231 14.9999H5.77685C8.38533 14.9999 10.4999 12.8853 10.4999 10.2768C10.4999 9.44058 10.2779 8.61933 9.8566 7.89694L5.24997 0L0.643347 7.89701C0.221999 8.61933 0 9.44065 0 10.2769C0 12.8854 2.11461 14.9999 4.7231 14.9999ZM6.74997 11.9999C6.33574 11.9999 5.99997 11.6642 5.99997 11.2499C5.99997 10.8357 6.33574 10.4999 6.74997 10.4999C7.16419 10.4999 7.49996 10.8358 7.49996 11.2499C7.49996 11.6641 7.16419 11.9999 6.74997 11.9999ZM3.74998 7.49996C4.1642 7.49996 4.49998 7.83581 4.49998 8.24996C4.49998 8.66411 4.1642 8.99996 3.74998 8.99996C3.33576 8.99996 2.99998 8.66418 2.99998 8.24996C2.99998 7.83574 3.33576 7.49996 3.74998 7.49996ZM2.97726 11.2272L6.72724 7.47724C6.94699 7.25749 7.30294 7.25749 7.52261 7.47724C7.74229 7.69699 7.74236 8.05294 7.52261 8.27261L3.77263 12.0226C3.66276 12.1325 3.51921 12.1874 3.37491 12.1874C3.23061 12.1874 3.08706 12.1325 2.97718 12.0226C2.75744 11.8028 2.75751 11.4469 2.97726 11.2272Z" fill="var(--fill-0, #E4EBF6)"/>
<path id="Vector_2" opacity="0.4" d="M6.75011 11.9999C6.33588 11.9999 6.00011 11.6641 6.00011 11.2499C6.00011 10.8357 6.33588 10.4999 6.75011 10.4999C7.16433 10.4999 7.5001 10.8358 7.5001 11.2499C7.5001 11.6641 7.16433 11.9999 6.75011 11.9999ZM3.75012 7.49994C4.16434 7.49994 4.50012 7.83579 4.50012 8.24994C4.50012 8.66409 4.16434 8.99994 3.75012 8.99994C3.3359 8.99994 3.00012 8.66416 3.00012 8.24994C3.00012 7.83572 3.3359 7.49994 3.75012 7.49994ZM2.9774 11.2272L6.72738 7.47722C6.94713 7.25747 7.30308 7.25747 7.52275 7.47722C7.74243 7.69697 7.7425 8.05292 7.52275 8.27259L3.77277 12.0226C3.6629 12.1324 3.51935 12.1873 3.37505 12.1873C3.23075 12.1873 3.0872 12.1324 2.97732 12.0226C2.75757 11.8028 2.75765 11.4469 2.9774 11.2272Z" fill="var(--fill-0, #E4EBF6)"/>
</g>
</svg>
