<svg preserveAspectRatio="none" width="100%" height="100%" overflow="visible" style="display: block;" viewBox="0 0 117.919 59" fill="none" xmlns="http://www.w3.org/2000/svg">
<path id="Ellipse 9" d="M115.733 59C116.963 59 117.964 58.0028 117.918 56.7741C117.654 49.7857 116.149 42.8936 113.468 36.4217C110.503 29.2635 106.158 22.7594 100.679 17.2807C95.2002 11.802 88.6961 7.45613 81.5379 4.49111C74.3797 1.52608 66.7075 -3.38675e-07 58.9595 0C51.2116 3.38675e-07 43.5394 1.52608 36.3812 4.49111C29.223 7.45614 22.7189 11.802 17.2402 17.2807C11.7616 22.7594 7.41568 29.2635 4.45065 36.4217C1.76988 42.8936 0.265382 49.7857 0.00154963 56.7741C-0.0448389 58.0028 0.956348 59 2.18596 59L6.82503 59C8.05465 59 9.04626 58.0027 9.1011 56.7743C9.35974 50.9803 10.6267 45.2698 12.8505 39.901C15.3586 33.8459 19.0348 28.344 23.6692 23.7096C28.3036 19.0753 33.8054 15.399 39.8605 12.8909C45.9157 10.3828 52.4055 9.0919 58.9595 9.0919C65.5136 9.0919 72.0034 10.3828 78.0585 12.8909C84.1137 15.399 89.6155 19.0752 94.2499 23.7096C98.8843 28.344 102.561 33.8459 105.069 39.901C107.292 45.2698 108.559 50.9803 108.818 56.7743C108.873 58.0027 109.864 59 111.094 59H115.733Z" fill="var(--fill-0, #6A7282)"/>
</svg>
