<svg preserveAspectRatio="none" width="100%" height="100%" overflow="visible" style="display: block;" viewBox="0 0 12.0956 11.9318" fill="none" xmlns="http://www.w3.org/2000/svg">
<g id="Union">
<path d="M5.96591 0C6.24833 0 6.47727 0.228945 6.47727 0.511364C6.47727 0.793782 6.24833 1.02273 5.96591 1.02273C4.57462 1.02273 3.3421 1.4941 2.46094 2.3311C1.58382 3.16428 1.02273 4.38984 1.02273 5.96591C1.02273 7.54198 1.58382 8.76754 2.46094 9.60072C3.3421 10.4377 4.57462 10.9091 5.96591 10.9091C6.24833 10.9091 6.47727 11.138 6.47727 11.4205C6.47727 11.7029 6.24833 11.9318 5.96591 11.9318C4.34367 11.9318 2.84916 11.3803 1.75648 10.3425C0.659732 9.30065 0 7.79893 0 5.96591C0 4.13289 0.659732 2.63117 1.75648 1.58936C2.84916 0.551471 4.34367 0 5.96591 0Z" fill="var(--fill-0, #94A3B8)"/>
<path d="M9.47754 3.89981C9.67724 3.70011 10.0009 3.70011 10.2006 3.89981L11.9458 5.64498C12.1455 5.84468 12.1455 6.16838 11.9458 6.36808L10.2006 8.1139C10.0009 8.31355 9.67723 8.31355 9.47754 8.1139C9.27785 7.91422 9.27788 7.59051 9.47754 7.3908L10.3491 6.51855H4.60227C4.31997 6.51855 4.09109 6.28946 4.09091 6.00719C4.09091 5.72477 4.31985 5.49583 4.60227 5.49583H10.3505L9.47754 4.62291C9.27784 4.42321 9.27784 4.09951 9.47754 3.89981Z" fill="var(--fill-0, #94A3B8)"/>
</g>
</svg>
