<svg preserveAspectRatio="none" width="100%" height="100%" overflow="visible" style="display: block;" viewBox="0 0 9.8564 12.3806" fill="none" xmlns="http://www.w3.org/2000/svg">
<g id="Union">
<path d="M6.82151 7.57191C7.62639 7.57198 8.39834 7.89169 8.96751 8.4608C9.53671 9.03003 9.8564 9.80247 9.8564 10.6075V11.8692C9.85634 12.1516 9.62742 12.3806 9.34504 12.3806C9.06273 12.3805 8.83373 12.1515 8.83367 11.8692V10.6075C8.83367 10.0737 8.62181 9.56133 8.24441 9.1839C7.86704 8.80658 7.35515 8.59471 6.82151 8.59464H3.03556C2.50178 8.59464 1.98943 8.80647 1.61199 9.1839C1.23459 9.56133 1.02273 10.0737 1.02273 10.6075V11.8692C1.02267 12.1516 0.793746 12.3806 0.511364 12.3806C0.228981 12.3806 5.79742e-05 12.1516 0 11.8692V10.6075C0 9.80247 0.319687 9.03003 0.888894 8.4608C1.45813 7.89157 2.23054 7.57191 3.03556 7.57191H6.82151Z" fill="var(--fill-0, #94A3B8)"/>
<path fill-rule="evenodd" clip-rule="evenodd" d="M4.92853 0C6.60478 0.00012861 7.96342 1.35928 7.96342 3.03556C7.96329 4.71173 6.6047 6.07032 4.92853 6.07045C3.25225 6.07045 1.89311 4.71181 1.89298 3.03556C1.89298 1.3592 3.25217 0 4.92853 0ZM4.92853 1.02273C3.81701 1.02273 2.9157 1.92403 2.9157 3.03556C2.91583 4.14697 3.81709 5.04772 4.92853 5.04772C6.03987 5.04759 6.94057 4.14689 6.9407 3.03556C6.9407 1.92411 6.03995 1.02286 4.92853 1.02273Z" fill="var(--fill-0, #94A3B8)"/>
</g>
</svg>
