<svg preserveAspectRatio="none" width="100%" height="100%" overflow="visible" style="display: block;" viewBox="0 0 13.7205 13" fill="none" xmlns="http://www.w3.org/2000/svg">
<g id="Union">
<path fill-rule="evenodd" clip-rule="evenodd" d="M6.85749 4.08796C8.18955 4.08826 9.27007 5.16841 9.27007 6.50054C9.26978 7.83241 8.18937 8.91282 6.85749 8.91311C5.52537 8.91311 4.44521 7.83259 4.44492 6.50054C4.44492 5.16823 5.52519 4.08796 6.85749 4.08796ZM6.85749 5.10413C6.08616 5.10413 5.46109 5.7292 5.46109 6.50054C5.46138 7.27162 6.08634 7.89694 6.85749 7.89694C7.6284 7.89665 8.25361 7.27144 8.2539 6.50054C8.2539 5.72938 7.62858 5.10443 6.85749 5.10413Z" fill="var(--fill-0, #94A3B8)"/>
<path fill-rule="evenodd" clip-rule="evenodd" d="M7.53861 0.774937C7.97307 0.0446844 8.92234 -0.227275 9.67345 0.213949L9.67456 0.212847L10.7723 0.841065C11.5949 1.31155 11.8746 2.36622 11.4049 3.1798L11.4038 3.1809C11.1693 3.58559 11.2115 3.83564 11.2782 3.9513C11.3453 4.06696 11.5406 4.22784 12.0056 4.22793C12.9443 4.22823 13.7205 4.99314 13.7205 5.94175V7.05932C13.7201 7.9978 12.9539 8.77284 12.0056 8.77314C11.5395 8.77323 11.3449 8.93406 11.2782 9.04978C11.2199 9.15097 11.1808 9.35437 11.3289 9.67469L11.4038 9.82017L11.406 9.82238C11.8733 10.6408 11.5957 11.6893 10.7723 12.16L10.7712 12.1589L9.67456 12.7882L9.67345 12.7871C8.92264 13.228 7.97325 12.9557 7.53861 12.2261L7.53531 12.2206L7.46587 12.1005L7.46477 12.0983C7.23358 11.695 6.99674 11.6059 6.86301 11.6056C6.72857 11.6057 6.49046 11.6955 6.25573 12.1005L6.18629 12.2206L6.18299 12.2261C5.7485 12.9562 4.79807 13.2282 4.04705 12.7871L2.94932 12.1589C2.12607 11.6885 1.84649 10.634 2.31669 9.82017L2.39274 9.67469C2.5405 9.35505 2.50154 9.15116 2.44344 9.04978C2.37676 8.93407 2.18085 8.77327 1.71492 8.77314C0.766564 8.7729 0.000371228 7.99784 0 7.05932V5.94175C0 5.00293 0.766334 4.22817 1.71492 4.22793C2.18058 4.2278 2.37665 4.06699 2.44344 3.9513C2.51007 3.83567 2.551 3.58542 2.31669 3.1809C1.8469 2.36729 2.1255 1.31156 2.94822 0.841065L4.04705 0.212847C4.75099 -0.200916 5.62945 0.0130749 6.09482 0.64268L6.18299 0.774937L6.18629 0.780448L6.25573 0.90058L6.25683 0.902785C6.48822 1.30607 6.72503 1.39434 6.8586 1.39434C6.99318 1.39396 7.23162 1.30471 7.46587 0.90058L7.53531 0.780448L7.53861 0.774937ZM5.24176 1.20146C5.06563 1.00674 4.77774 0.959846 4.55844 1.09015L4.55182 1.09456L3.45299 1.72277C3.12097 1.9125 3.00646 2.34289 3.1962 2.67171L3.31302 2.89655C3.55648 3.42551 3.59495 3.98626 3.32294 4.45828C3.01195 4.99763 2.3973 5.24287 1.71492 5.243C1.33078 5.24324 1.01727 5.56042 1.01727 5.94175V7.05932C1.01765 7.44035 1.33101 7.75673 1.71492 7.75697C2.39743 7.75711 3.01201 8.00323 3.32294 8.5428C3.63365 9.08249 3.53915 9.73767 3.1962 10.3294C3.0305 10.6169 3.09697 10.9817 3.33837 11.1956L3.45299 11.2772L4.55182 11.9065L4.55844 11.9109C4.80796 12.059 5.14629 11.9775 5.30789 11.7103L5.37732 11.5913C5.72025 10.9997 6.24042 10.5906 6.86301 10.5906C7.48551 10.5908 8.00452 10.9996 8.34428 11.5913L8.41371 11.7103C8.57547 11.977 8.91273 12.0589 9.16206 11.9109L10.2686 11.2772C10.5986 11.0882 10.7151 10.6654 10.5254 10.3294L10.4086 10.1045C10.1648 9.57543 10.1256 9.01501 10.3976 8.5428C10.7085 8.00319 11.323 7.75707 12.0056 7.75697C12.3894 7.75667 12.704 7.44031 12.7043 7.05932V5.94175C12.7043 5.55759 12.3868 5.2433 12.0056 5.243C11.3232 5.2429 10.7086 4.99754 10.3976 4.45828C10.0866 3.91855 10.1824 3.26353 10.5254 2.67171L10.5827 2.54497C10.6835 2.23983 10.5589 1.88899 10.2686 1.72277L9.16206 1.09015C8.9114 0.941239 8.5723 1.02396 8.41151 1.29404L8.34428 1.40977C8.0015 2.00111 7.48079 2.41013 6.8586 2.41051C6.23618 2.41051 5.71719 2.0011 5.37732 1.40977L5.31009 1.29404L5.24176 1.20146Z" fill="var(--fill-0, #94A3B8)"/>
</g>
</svg>
