<svg preserveAspectRatio="none" width="100%" height="100%" overflow="visible" style="display: block;" viewBox="0 0 16.6813 18.27" fill="none" xmlns="http://www.w3.org/2000/svg">
<path id="Vector" d="M15.2225 3.5078L9.77633 0.380364C8.89074 -0.126788 7.79058 -0.126788 6.905 0.380364L1.45803 3.5078C0.558799 4.02409 0 4.99042 0 6.03061V12.2398C0 13.28 0.558799 14.2471 1.45803 14.7634L6.905 17.89C7.34779 18.1436 7.84366 18.27 8.34028 18.27C8.83691 18.27 9.33353 18.1436 9.77633 17.89L15.2233 14.7626C16.1233 14.2463 16.6813 13.28 16.6813 12.2398V6.03137C16.6813 4.99118 16.1233 4.02409 15.2233 3.50856L15.2225 3.5078ZM1.8341 4.16877L7.28107 1.0421C7.93464 0.666684 8.74592 0.668207 9.3995 1.0421L14.8465 4.16801C15.0625 4.29213 15.24 4.46042 15.3969 4.64622L12.3808 6.37785C12.2322 6.20423 12.0646 6.04584 11.8614 5.92857L9.35931 4.48555C8.73 4.12232 7.94905 4.12232 7.32049 4.48555L4.81841 5.92857C4.61521 6.04584 4.4484 6.20423 4.29904 6.37785L1.28289 4.64622C1.43984 4.46118 1.61801 4.29289 1.8341 4.16877ZM12.1313 7.71198V10.5676C12.1313 11.0305 11.8826 11.4623 11.4823 11.6923L8.98021 13.1284C8.89756 13.1764 8.80885 13.2076 8.71939 13.2358V9.35756L12.0927 7.42109C12.1146 7.51628 12.1313 7.61222 12.1313 7.71198ZM4.54924 7.71198C4.54924 7.61222 4.56593 7.51551 4.58791 7.42033L7.96118 9.35679V13.2351C7.87171 13.2076 7.783 13.1757 7.70035 13.1277L5.19903 11.6923C4.79794 11.4615 4.54924 11.0305 4.54924 10.5668V7.71122V7.71198ZM8.34028 8.69658L4.97081 6.7624C5.04056 6.69844 5.11259 6.63676 5.19675 6.58878L7.69884 5.14576C7.89673 5.03154 8.11889 4.97443 8.34028 4.97443C8.56168 4.97443 8.78383 5.03078 8.98248 5.14576L11.4846 6.58878C11.568 6.63676 11.6408 6.69844 11.7105 6.7624L8.34104 8.69658H8.34028ZM1.8341 14.1032C1.17067 13.7216 0.758207 13.0081 0.758207 12.2406V6.03137C0.758207 5.7778 0.817348 5.5364 0.901509 5.30491L3.91917 7.0373C3.84335 7.25356 3.79028 7.47744 3.79028 7.71274V10.5683C3.79028 11.3039 4.18531 11.9877 4.82144 12.3548L7.32353 13.7909C7.52293 13.9052 7.73978 13.9699 7.96042 14.011V17.4621C7.72462 17.4194 7.49336 17.3524 7.28031 17.2298L1.83335 14.1039L1.8341 14.1032ZM15.9224 12.2406C15.9224 13.0081 15.5099 13.7216 14.8465 14.1032L9.3995 17.2291C9.18644 17.3517 8.95519 17.4187 8.71939 17.4613V14.0103C8.94002 13.9684 9.15687 13.9044 9.35628 13.7902L11.8584 12.3533C12.4945 11.9877 12.8895 11.3032 12.8895 10.5676V7.71198C12.8895 7.47668 12.8365 7.2528 12.7606 7.03654L15.7791 5.30415C15.8632 5.53564 15.9224 5.77703 15.9224 6.03061V12.2406Z" fill="var(--fill-0, #E9EBEB)"/>
</svg>
