<svg preserveAspectRatio="none" width="100%" height="100%" overflow="visible" style="display: block;" viewBox="0 0 12.5809 12.5809" fill="none" xmlns="http://www.w3.org/2000/svg">
<g id="Icon">
<g id="Icon_2">
<path d="M2.77513 8.77498C3.01515 8.77498 3.21418 8.97402 3.21418 9.21403V10.3845C3.21418 10.6246 3.01515 10.8236 2.77513 10.8236C2.53512 10.8236 2.33608 10.6246 2.33608 10.3845V9.21403C2.33608 8.97402 2.53512 8.77498 2.77513 8.77498Z" fill="var(--fill-0, #E4EBF6)"/>
<path d="M5.11701 8.77498C5.35693 8.7751 5.55606 8.97409 5.55606 9.21403V10.3845C5.55606 10.6245 5.35693 10.8235 5.11701 10.8236C4.877 10.8236 4.67797 10.6246 4.67797 10.3845V9.21403C4.67797 8.97402 4.877 8.77498 5.11701 8.77498Z" fill="var(--fill-0, #E4EBF6)"/>
<path d="M9.79992 9.36067C10.0399 9.36071 10.239 9.55973 10.239 9.79971C10.239 10.0397 10.0399 10.2387 9.79992 10.2388H7.45804C7.21812 10.2386 7.01899 10.0397 7.01899 9.79971C7.01899 9.55977 7.21812 9.36078 7.45804 9.36067H9.79992Z" fill="var(--fill-0, #E4EBF6)"/>
<path fill-rule="evenodd" clip-rule="evenodd" d="M10.5725 7.02479C11.6789 7.0248 12.5809 7.9267 12.5809 9.03309V10.5723C12.5808 11.6787 11.6789 12.5806 10.5725 12.5806H2.00851C0.902117 12.5806 0.000219435 11.6787 0.000204763 10.5723V9.03309C0.000204763 7.92669 0.902108 7.02479 2.00851 7.02479H10.5725ZM2.00251 7.89688C1.37613 7.89688 0.872301 8.40657 0.872301 9.02709V10.5663C0.872301 11.1927 1.38199 11.6965 2.00251 11.6965H10.5665C11.1929 11.6965 11.6967 11.1869 11.6967 10.5663V9.02709C11.6967 8.40071 11.1871 7.89688 10.5665 7.89688H2.00251Z" fill="var(--fill-0, #E4EBF6)"/>
<path d="M2.77513 1.75019C3.01515 1.75019 3.21418 1.94923 3.21418 2.18924V3.35976C3.21418 3.59977 3.01515 3.7988 2.77513 3.7988C2.53512 3.7988 2.33608 3.59977 2.33608 3.35976V2.18924C2.33608 1.94923 2.53512 1.75019 2.77513 1.75019Z" fill="var(--fill-0, #E4EBF6)"/>
<path d="M5.11701 1.75019C5.35693 1.75031 5.55606 1.9493 5.55606 2.18924V3.35976C5.55606 3.5997 5.35693 3.79869 5.11701 3.7988C4.877 3.7988 4.67797 3.59977 4.67797 3.35976V2.18924C4.67797 1.94923 4.877 1.75019 5.11701 1.75019Z" fill="var(--fill-0, #E4EBF6)"/>
<path d="M9.79992 2.33588C10.0399 2.33592 10.239 2.53494 10.239 2.77493C10.239 3.01492 10.0399 3.21394 9.79992 3.21398H7.45804C7.21812 3.21386 7.01899 3.01487 7.01899 2.77493C7.01899 2.53499 7.21812 2.336 7.45804 2.33588H9.79992Z" fill="var(--fill-0, #E4EBF6)"/>
<path fill-rule="evenodd" clip-rule="evenodd" d="M10.5725 0C11.6789 1.43854e-05 12.5809 0.901912 12.5809 2.00831V3.54755C12.5808 4.65393 11.6789 5.55584 10.5725 5.55586H2.00851C0.902117 5.55586 0.000219435 4.65394 0.000204763 3.54755V2.00831C0.000204763 0.901903 0.902108 0 2.00851 0H10.5725ZM2.00251 0.872096C1.37613 0.872096 0.872301 1.38178 0.872301 2.0023V3.54155C0.872301 4.16793 1.38199 4.67176 2.00251 4.67176H10.5665C11.1929 4.67176 11.6967 4.16207 11.6967 3.54155V2.0023C11.6967 1.37593 11.1871 0.872096 10.5665 0.872096H2.00251Z" fill="var(--fill-0, #E4EBF6)"/>
</g>
</g>
</svg>
