<svg preserveAspectRatio="none" width="100%" height="100%" overflow="visible" style="display: block;" viewBox="0 0 55.1756 9" fill="none" xmlns="http://www.w3.org/2000/svg">
<g id="Union">
<path d="M9.17379 0C10.0645 0.000195597 10.5105 1.07711 9.88082 1.70703L2.88082 8.70703C2.69334 8.89451 2.43891 8.99994 2.17379 9H1.00191C0.11106 8.99995 -0.335027 7.92292 0.294879 7.29297L7.29488 0.292969C7.4824 0.105446 7.73672 1.57602e-05 8.00191 0H9.17379Z" fill="url(#paint0_linear_51_1456)"/>
<path d="M9.17379 0C10.0645 0.000195597 10.5105 1.07711 9.88082 1.70703L2.88082 8.70703C2.69334 8.89451 2.43891 8.99994 2.17379 9H1.00191C0.11106 8.99995 -0.335027 7.92292 0.294879 7.29297L7.29488 0.292969C7.4824 0.105446 7.73672 1.57602e-05 8.00191 0H9.17379Z" fill="url(#paint1_linear_51_1456)"/>
<path d="M9.17379 0C10.0645 0.000195597 10.5105 1.07711 9.88082 1.70703L2.88082 8.70703C2.69334 8.89451 2.43891 8.99994 2.17379 9H1.00191C0.11106 8.99995 -0.335027 7.92292 0.294879 7.29297L7.29488 0.292969C7.4824 0.105446 7.73672 1.57602e-05 8.00191 0H9.17379Z" fill="url(#paint2_linear_51_1456)"/>
<path d="M18.1738 0C19.0645 0.000195597 19.5105 1.07711 18.8808 1.70703L11.8808 8.70703C11.6933 8.89451 11.4389 8.99994 11.1738 9H10.0019C9.11106 8.99995 8.66497 7.92292 9.29488 7.29297L16.2949 0.292969C16.4824 0.105446 16.7367 1.57602e-05 17.0019 0H18.1738Z" fill="url(#paint3_linear_51_1456)"/>
<path d="M18.1738 0C19.0645 0.000195597 19.5105 1.07711 18.8808 1.70703L11.8808 8.70703C11.6933 8.89451 11.4389 8.99994 11.1738 9H10.0019C9.11106 8.99995 8.66497 7.92292 9.29488 7.29297L16.2949 0.292969C16.4824 0.105446 16.7367 1.57602e-05 17.0019 0H18.1738Z" fill="url(#paint4_linear_51_1456)"/>
<path d="M18.1738 0C19.0645 0.000195597 19.5105 1.07711 18.8808 1.70703L11.8808 8.70703C11.6933 8.89451 11.4389 8.99994 11.1738 9H10.0019C9.11106 8.99995 8.66497 7.92292 9.29488 7.29297L16.2949 0.292969C16.4824 0.105446 16.7367 1.57602e-05 17.0019 0H18.1738Z" fill="url(#paint5_linear_51_1456)"/>
<path d="M27.1738 0C28.0645 0.000195597 28.5105 1.07711 27.8808 1.70703L20.8808 8.70703C20.6933 8.89451 20.4389 8.99994 20.1738 9H19.0019C18.1111 8.99995 17.665 7.92292 18.2949 7.29297L25.2949 0.292969C25.4824 0.105446 25.7367 1.57602e-05 26.0019 0H27.1738Z" fill="url(#paint6_linear_51_1456)"/>
<path d="M27.1738 0C28.0645 0.000195597 28.5105 1.07711 27.8808 1.70703L20.8808 8.70703C20.6933 8.89451 20.4389 8.99994 20.1738 9H19.0019C18.1111 8.99995 17.665 7.92292 18.2949 7.29297L25.2949 0.292969C25.4824 0.105446 25.7367 1.57602e-05 26.0019 0H27.1738Z" fill="url(#paint7_linear_51_1456)"/>
<path d="M27.1738 0C28.0645 0.000195597 28.5105 1.07711 27.8808 1.70703L20.8808 8.70703C20.6933 8.89451 20.4389 8.99994 20.1738 9H19.0019C18.1111 8.99995 17.665 7.92292 18.2949 7.29297L25.2949 0.292969C25.4824 0.105446 25.7367 1.57602e-05 26.0019 0H27.1738Z" fill="url(#paint8_linear_51_1456)"/>
<path d="M36.1738 0C37.0645 0.000195597 37.5105 1.07711 36.8808 1.70703L29.8808 8.70703C29.6933 8.89451 29.4389 8.99994 29.1738 9H28.0019C27.1111 8.99995 26.665 7.92292 27.2949 7.29297L34.2949 0.292969C34.4824 0.105446 34.7367 1.57602e-05 35.0019 0H36.1738Z" fill="url(#paint9_linear_51_1456)"/>
<path d="M36.1738 0C37.0645 0.000195597 37.5105 1.07711 36.8808 1.70703L29.8808 8.70703C29.6933 8.89451 29.4389 8.99994 29.1738 9H28.0019C27.1111 8.99995 26.665 7.92292 27.2949 7.29297L34.2949 0.292969C34.4824 0.105446 34.7367 1.57602e-05 35.0019 0H36.1738Z" fill="url(#paint10_linear_51_1456)"/>
<path d="M36.1738 0C37.0645 0.000195597 37.5105 1.07711 36.8808 1.70703L29.8808 8.70703C29.6933 8.89451 29.4389 8.99994 29.1738 9H28.0019C27.1111 8.99995 26.665 7.92292 27.2949 7.29297L34.2949 0.292969C34.4824 0.105446 34.7367 1.57602e-05 35.0019 0H36.1738Z" fill="url(#paint11_linear_51_1456)"/>
<path d="M45.1738 0C46.0645 0.000195597 46.5105 1.07711 45.8808 1.70703L38.8808 8.70703C38.6933 8.89451 38.4389 8.99994 38.1738 9H37.0019C36.1111 8.99995 35.665 7.92292 36.2949 7.29297L43.2949 0.292969C43.4824 0.105446 43.7367 1.57602e-05 44.0019 0H45.1738Z" fill="url(#paint12_linear_51_1456)"/>
<path d="M45.1738 0C46.0645 0.000195597 46.5105 1.07711 45.8808 1.70703L38.8808 8.70703C38.6933 8.89451 38.4389 8.99994 38.1738 9H37.0019C36.1111 8.99995 35.665 7.92292 36.2949 7.29297L43.2949 0.292969C43.4824 0.105446 43.7367 1.57602e-05 44.0019 0H45.1738Z" fill="url(#paint13_linear_51_1456)"/>
<path d="M45.1738 0C46.0645 0.000195597 46.5105 1.07711 45.8808 1.70703L38.8808 8.70703C38.6933 8.89451 38.4389 8.99994 38.1738 9H37.0019C36.1111 8.99995 35.665 7.92292 36.2949 7.29297L43.2949 0.292969C43.4824 0.105446 43.7367 1.57602e-05 44.0019 0H45.1738Z" fill="url(#paint14_linear_51_1456)"/>
<path d="M54.1738 0C55.0645 0.000195597 55.5105 1.07711 54.8808 1.70703L47.8808 8.70703C47.6933 8.89451 47.4389 8.99994 47.1738 9H46.0019C45.1111 8.99995 44.665 7.92292 45.2949 7.29297L52.2949 0.292969C52.4824 0.105446 52.7367 1.57602e-05 53.0019 0H54.1738Z" fill="url(#paint15_linear_51_1456)"/>
<path d="M54.1738 0C55.0645 0.000195597 55.5105 1.07711 54.8808 1.70703L47.8808 8.70703C47.6933 8.89451 47.4389 8.99994 47.1738 9H46.0019C45.1111 8.99995 44.665 7.92292 45.2949 7.29297L52.2949 0.292969C52.4824 0.105446 52.7367 1.57602e-05 53.0019 0H54.1738Z" fill="url(#paint16_linear_51_1456)"/>
<path d="M54.1738 0C55.0645 0.000195597 55.5105 1.07711 54.8808 1.70703L47.8808 8.70703C47.6933 8.89451 47.4389 8.99994 47.1738 9H46.0019C45.1111 8.99995 44.665 7.92292 45.2949 7.29297L52.2949 0.292969C52.4824 0.105446 52.7367 1.57602e-05 53.0019 0H54.1738Z" fill="url(#paint17_linear_51_1456)"/>
</g>
<defs>
<linearGradient id="paint0_linear_51_1456" x1="1.76686e-08" y1="4.5" x2="55.1756" y2="4.5" gradientUnits="userSpaceOnUse">
<stop stop-color="#AFEEF7" stop-opacity="0"/>
<stop offset="1" stop-color="#AFEEF7"/>
</linearGradient>
<linearGradient id="paint1_linear_51_1456" x1="2.17578" y1="5" x2="9.99215" y2="21.8663" gradientUnits="userSpaceOnUse">
<stop stop-color="#7084F5" stop-opacity="0"/>
<stop offset="1" stop-color="#81E1C5"/>
</linearGradient>
<linearGradient id="paint2_linear_51_1456" x1="0.175781" y1="9" x2="11.5185" y2="28.8929" gradientUnits="userSpaceOnUse">
<stop stop-color="#60EBFF" stop-opacity="0"/>
<stop offset="1" stop-color="#60FFEA"/>
</linearGradient>
<linearGradient id="paint3_linear_51_1456" x1="1.76686e-08" y1="4.5" x2="55.1756" y2="4.5" gradientUnits="userSpaceOnUse">
<stop stop-color="#AFEEF7" stop-opacity="0"/>
<stop offset="1" stop-color="#AFEEF7"/>
</linearGradient>
<linearGradient id="paint4_linear_51_1456" x1="2.17578" y1="5" x2="9.99215" y2="21.8663" gradientUnits="userSpaceOnUse">
<stop stop-color="#7084F5" stop-opacity="0"/>
<stop offset="1" stop-color="#81E1C5"/>
</linearGradient>
<linearGradient id="paint5_linear_51_1456" x1="0.175781" y1="9" x2="11.5185" y2="28.8929" gradientUnits="userSpaceOnUse">
<stop stop-color="#60EBFF" stop-opacity="0"/>
<stop offset="1" stop-color="#60FFEA"/>
</linearGradient>
<linearGradient id="paint6_linear_51_1456" x1="1.76686e-08" y1="4.5" x2="55.1756" y2="4.5" gradientUnits="userSpaceOnUse">
<stop stop-color="#AFEEF7" stop-opacity="0"/>
<stop offset="1" stop-color="#AFEEF7"/>
</linearGradient>
<linearGradient id="paint7_linear_51_1456" x1="2.17578" y1="5" x2="9.99215" y2="21.8663" gradientUnits="userSpaceOnUse">
<stop stop-color="#7084F5" stop-opacity="0"/>
<stop offset="1" stop-color="#81E1C5"/>
</linearGradient>
<linearGradient id="paint8_linear_51_1456" x1="0.175781" y1="9" x2="11.5185" y2="28.8929" gradientUnits="userSpaceOnUse">
<stop stop-color="#60EBFF" stop-opacity="0"/>
<stop offset="1" stop-color="#60FFEA"/>
</linearGradient>
<linearGradient id="paint9_linear_51_1456" x1="1.76686e-08" y1="4.5" x2="55.1756" y2="4.5" gradientUnits="userSpaceOnUse">
<stop stop-color="#AFEEF7" stop-opacity="0"/>
<stop offset="1" stop-color="#AFEEF7"/>
</linearGradient>
<linearGradient id="paint10_linear_51_1456" x1="2.17578" y1="5" x2="9.99215" y2="21.8663" gradientUnits="userSpaceOnUse">
<stop stop-color="#7084F5" stop-opacity="0"/>
<stop offset="1" stop-color="#81E1C5"/>
</linearGradient>
<linearGradient id="paint11_linear_51_1456" x1="0.175781" y1="9" x2="11.5185" y2="28.8929" gradientUnits="userSpaceOnUse">
<stop stop-color="#60EBFF" stop-opacity="0"/>
<stop offset="1" stop-color="#60FFEA"/>
</linearGradient>
<linearGradient id="paint12_linear_51_1456" x1="1.76686e-08" y1="4.5" x2="55.1756" y2="4.5" gradientUnits="userSpaceOnUse">
<stop stop-color="#AFEEF7" stop-opacity="0"/>
<stop offset="1" stop-color="#AFEEF7"/>
</linearGradient>
<linearGradient id="paint13_linear_51_1456" x1="2.17578" y1="5" x2="9.99215" y2="21.8663" gradientUnits="userSpaceOnUse">
<stop stop-color="#7084F5" stop-opacity="0"/>
<stop offset="1" stop-color="#81E1C5"/>
</linearGradient>
<linearGradient id="paint14_linear_51_1456" x1="0.175781" y1="9" x2="11.5185" y2="28.8929" gradientUnits="userSpaceOnUse">
<stop stop-color="#60EBFF" stop-opacity="0"/>
<stop offset="1" stop-color="#60FFEA"/>
</linearGradient>
<linearGradient id="paint15_linear_51_1456" x1="1.76686e-08" y1="4.5" x2="55.1756" y2="4.5" gradientUnits="userSpaceOnUse">
<stop stop-color="#AFEEF7" stop-opacity="0"/>
<stop offset="1" stop-color="#AFEEF7"/>
</linearGradient>
<linearGradient id="paint16_linear_51_1456" x1="2.17578" y1="5" x2="9.99215" y2="21.8663" gradientUnits="userSpaceOnUse">
<stop stop-color="#7084F5" stop-opacity="0"/>
<stop offset="1" stop-color="#81E1C5"/>
</linearGradient>
<linearGradient id="paint17_linear_51_1456" x1="0.175781" y1="9" x2="11.5185" y2="28.8929" gradientUnits="userSpaceOnUse">
<stop stop-color="#60EBFF" stop-opacity="0"/>
<stop offset="1" stop-color="#60FFEA"/>
</linearGradient>
</defs>
</svg>
