<svg preserveAspectRatio="none" width="100%" height="100%" overflow="visible" style="display: block;" viewBox="0 0 106 106" fill="none" xmlns="http://www.w3.org/2000/svg">
<g id="Gauge">
<path id="Ellipse 9" d="M94.256 79.4838C96.1034 80.6698 98.5769 80.1397 99.6211 78.2086C103.52 70.9982 105.702 62.9642 105.972 54.7355C106.285 45.1794 104.007 35.7166 99.3795 27.3497C94.7522 18.9828 87.9477 12.0234 79.6869 7.20909C71.4262 2.39475 62.017 -0.0952978 52.4563 0.0027974C42.8955 0.100893 33.5394 2.78347 25.3792 7.7663C17.219 12.7491 10.5587 19.8466 6.10396 28.3067C1.64926 36.7668 -0.433902 46.2744 0.0751984 55.8221C0.513581 64.0435 2.86001 72.031 6.90597 79.1599C7.98955 81.0692 10.4734 81.5484 12.2961 80.3248V80.3248C14.1188 79.1012 14.5874 76.6389 13.5292 74.7155C10.2685 68.7887 8.37591 62.1876 8.01392 55.3987C7.58118 47.2832 9.35187 39.2018 13.1384 32.0107C16.9249 24.8196 22.5861 18.7868 29.5223 14.5514C36.4585 10.316 44.4112 8.03576 52.5378 7.95238C60.6644 7.86899 68.6623 9.98553 75.6839 14.0777C82.7055 18.1699 88.4894 24.0853 92.4226 31.1972C96.3559 38.3091 98.292 46.3525 98.0259 54.4752C97.8032 61.27 96.0465 67.9086 92.9081 73.901C91.8895 75.8458 92.4086 78.2979 94.256 79.4838V79.4838Z" fill="var(--fill-0, #6A7282)"/>
<path id="Ellipse 10" d="M100.58 64.8156C102.71 65.3447 104.882 64.0477 105.25 61.8835C106.498 54.5428 106.188 47.0058 104.321 39.7669C102.123 31.2421 97.8363 23.3992 91.8477 16.9464C85.859 10.4937 78.3573 5.63427 70.02 2.80717C61.6827 -0.0199271 52.7725 -0.725692 44.0941 0.753618C35.4158 2.23293 27.2426 5.85072 20.3127 11.2802C13.3828 16.7098 7.91462 23.78 4.40189 31.8524C0.889166 39.9248 -0.557411 48.745 0.192809 57.5166C0.829874 64.9651 3.03399 72.1792 6.64348 78.6919C7.70768 80.612 10.1865 81.1163 12.0215 79.9112V79.9112C13.8565 78.7061 14.3501 76.2488 13.3114 74.3147C10.4125 68.9169 8.63838 62.9714 8.11389 56.8391C7.4762 49.3833 8.70579 41.886 11.6916 35.0245C14.6774 28.163 19.3254 22.1533 25.2158 17.5382C31.1062 12.9231 38.0534 9.84799 45.43 8.59057C52.8066 7.33316 60.3803 7.93306 67.467 10.3361C74.5537 12.7391 80.9301 16.8696 86.0205 22.3545C91.1109 27.8393 94.7548 34.5058 96.6232 41.7518C98.1599 47.7117 98.4557 53.9091 97.5088 59.9625C97.1695 62.1314 98.4492 64.2865 100.58 64.8156V64.8156Z" fill="var(--fill-0, #81E1C5)"/>
</g>
</svg>
