<svg preserveAspectRatio="none" width="100%" height="100%" overflow="visible" style="display: block;" viewBox="0 0 121 121" fill="none" xmlns="http://www.w3.org/2000/svg">
<g id="Graph">
<path id="Ellipse 12" d="M121 60.5C121 93.9132 93.9132 121 60.5 121C27.0868 121 0 93.9132 0 60.5C0 27.0868 27.0868 1.34935e-05 60.5 1.34935e-05C93.9132 1.34935e-05 121 27.0868 121 60.5ZM4.53296 60.5C4.53296 91.4098 29.5903 116.467 60.5 116.467C91.4097 116.467 116.467 91.4098 116.467 60.5C116.467 29.5903 91.4097 4.53297 60.5 4.53297C29.5903 4.53297 4.53296 29.5903 4.53296 60.5Z" fill="var(--fill-0, #445ED9)"/>
<path id="Ellipse 13" d="M121 60.5C121 45.7605 115.619 31.528 105.868 20.4751C96.1168 9.4222 82.6661 2.30923 68.0416 0.471898L67.4765 4.9695C81.0053 6.66918 93.4483 13.2492 102.469 23.474C111.489 33.6988 116.467 46.8649 116.467 60.5H121Z" fill="var(--fill-0, #EDBC35)"/>
<path id="Ellipse 14" d="M67.8821 0.452078C58.1228 -0.7477 48.2181 0.449292 39.0256 3.93942C29.8331 7.42956 21.6297 13.1076 15.1258 20.4821L18.5255 23.4804C24.5421 16.6585 32.1308 11.4059 40.6346 8.17722C49.1383 4.94859 58.3009 3.84128 67.329 4.95117L67.8821 0.452078Z" fill="var(--fill-0, #FF5C57)"/>
</g>
</svg>
