<svg preserveAspectRatio="none" width="100%" height="100%" overflow="visible" style="display: block;" viewBox="0 0 16 16" fill="none" xmlns="http://www.w3.org/2000/svg">
<g id="Icon">
<path id="Vector" d="M4.40022 14V3.19999C4.40022 2.88174 4.52665 2.57651 4.75169 2.35147C4.97673 2.12642 5.28196 2 5.60022 2H10.4002C10.7185 2 11.0237 2.12642 11.2487 2.35147C11.4738 2.57651 11.6002 2.88174 11.6002 3.19999V14M4.40022 14H11.6002M4.40022 14L3.2 14C2.88174 14 2.57652 13.8736 2.35148 13.6485C2.12643 13.4235 2 13.1183 2 12.8V9.2C2 8.88174 2.12643 8.57652 2.35148 8.35147C2.57652 8.12643 2.88174 8 3.2 8H4.4M11.6002 14L12.7998 14C13.1181 14 13.4233 13.8735 13.6483 13.6485C13.8734 13.4235 13.9998 13.1182 13.9998 12.8V7.39997C13.9998 7.08171 13.8734 6.77649 13.6483 6.55144C13.4233 6.3264 13.1181 6.19997 12.7998 6.19997H11.5998M6.7999 4.40001H9.1999M6.7999 6.80003H9.1999M6.7999 9.19998H9.1999M6.7999 11.6H9.1999" stroke="var(--stroke-0, #E4EBF6)" stroke-width="0.899999" stroke-linecap="round" stroke-linejoin="round"/>
</g>
</svg>
