<svg preserveAspectRatio="none" width="100%" height="100%" overflow="visible" style="display: block;" viewBox="0 0 16 16" fill="none" xmlns="http://www.w3.org/2000/svg">
<g id="Icon">
<g id="Location">
<path fill-rule="evenodd" clip-rule="evenodd" d="M8 4C9.47276 4 10.667 5.19423 10.667 6.66699C10.6668 8.13961 9.47266 9.33398 8 9.33398C6.52734 9.33398 5.33317 8.13961 5.33301 6.66699C5.33301 5.19423 6.52724 4 8 4ZM8 5.33398C7.26362 5.33398 6.66699 5.93061 6.66699 6.66699C6.66716 7.40323 7.26372 8 8 8C8.73628 8 9.33284 7.40323 9.33301 6.66699C9.33301 5.93061 8.73638 5.33398 8 5.33398Z" fill="var(--fill-0, #60EBFF)"/>
<path fill-rule="evenodd" clip-rule="evenodd" d="M8 4C9.47276 4 10.667 5.19423 10.667 6.66699C10.6668 8.13961 9.47266 9.33398 8 9.33398C6.52734 9.33398 5.33317 8.13961 5.33301 6.66699C5.33301 5.19423 6.52724 4 8 4ZM8 5.33398C7.26362 5.33398 6.66699 5.93061 6.66699 6.66699C6.66716 7.40323 7.26372 8 8 8C8.73628 8 9.33284 7.40323 9.33301 6.66699C9.33301 5.93061 8.73638 5.33398 8 5.33398Z" fill="url(#paint0_linear_34_1338)"/>
<path fill-rule="evenodd" clip-rule="evenodd" d="M8 0.666016C9.59112 0.666145 11.1181 1.29872 12.2432 2.42383C13.3681 3.54887 13.9998 5.07506 14 6.66602C14 8.55479 12.9653 10.4014 11.8633 11.8496C10.7458 13.3178 9.47386 14.4871 8.83691 15.0371C8.82571 15.0468 8.81359 15.0565 8.80176 15.0654C8.57086 15.239 8.28887 15.3329 8 15.333C7.71123 15.3329 7.43009 15.2389 7.19922 15.0654C7.18732 15.0565 7.17533 15.0468 7.16406 15.0371C6.52728 14.4873 5.25543 13.3182 4.1377 11.8496C3.03547 10.4014 1.99902 8.55504 1.99902 6.66602C1.99919 5.07494 2.63274 3.5489 3.75781 2.42383C4.88292 1.29893 6.40901 0.666102 8 0.666016ZM8 2C6.76263 2.00009 5.57525 2.49137 4.7002 3.36621C3.82517 4.24123 3.33415 5.42857 3.33398 6.66602C3.33398 8.10555 4.14519 9.65711 5.19922 11.042C6.21733 12.3797 7.38611 13.4623 8 13.9951C8.61391 13.4623 9.78367 12.3796 10.8018 11.042C11.8556 9.65726 12.667 8.10535 12.667 6.66602C12.6668 5.42861 12.1748 4.24122 11.2998 3.36621C10.4248 2.49136 9.23735 2.00013 8 2Z" fill="var(--fill-0, #60EBFF)"/>
<path fill-rule="evenodd" clip-rule="evenodd" d="M8 0.666016C9.59112 0.666145 11.1181 1.29872 12.2432 2.42383C13.3681 3.54887 13.9998 5.07506 14 6.66602C14 8.55479 12.9653 10.4014 11.8633 11.8496C10.7458 13.3178 9.47386 14.4871 8.83691 15.0371C8.82571 15.0468 8.81359 15.0565 8.80176 15.0654C8.57086 15.239 8.28887 15.3329 8 15.333C7.71123 15.3329 7.43009 15.2389 7.19922 15.0654C7.18732 15.0565 7.17533 15.0468 7.16406 15.0371C6.52728 14.4873 5.25543 13.3182 4.1377 11.8496C3.03547 10.4014 1.99902 8.55504 1.99902 6.66602C1.99919 5.07494 2.63274 3.5489 3.75781 2.42383C4.88292 1.29893 6.40901 0.666102 8 0.666016ZM8 2C6.76263 2.00009 5.57525 2.49137 4.7002 3.36621C3.82517 4.24123 3.33415 5.42857 3.33398 6.66602C3.33398 8.10555 4.14519 9.65711 5.19922 11.042C6.21733 12.3797 7.38611 13.4623 8 13.9951C8.61391 13.4623 9.78367 12.3796 10.8018 11.042C11.8556 9.65726 12.667 8.10535 12.667 6.66602C12.6668 5.42861 12.1748 4.24122 11.2998 3.36621C10.4248 2.49136 9.23735 2.00013 8 2Z" fill="url(#paint1_linear_34_1338)"/>
</g>
</g>
<defs>
<linearGradient id="paint0_linear_34_1338" x1="7.99951" y1="13.4996" x2="7.99951" y2="-4.83411" gradientUnits="userSpaceOnUse">
<stop stop-color="#81E1C5" stop-opacity="0"/>
<stop offset="1" stop-color="#81E1C5"/>
</linearGradient>
<linearGradient id="paint1_linear_34_1338" x1="7.99951" y1="13.4996" x2="7.99951" y2="-4.83411" gradientUnits="userSpaceOnUse">
<stop stop-color="#81E1C5" stop-opacity="0"/>
<stop offset="1" stop-color="#81E1C5"/>
</linearGradient>
</defs>
</svg>
