<svg preserveAspectRatio="none" width="100%" height="100%" overflow="visible" style="display: block;" viewBox="0 0 420.104 96.3922" fill="none" xmlns="http://www.w3.org/2000/svg">
<path id="Line" d="M0.855028 15.1423C9.17 28.8518 13.9839 -0.907637 24.487 1.09861C34.9902 3.10486 36.3031 7.45158 48.1191 7.45158C59.9351 7.45158 61.5781 12.7274 70.8758 12.8016C80.5008 12.8784 85.3176 7.45158 94.5078 7.45158C106.97 7.45158 111.227 15.9134 118.14 23.8359C129.518 36.8766 133.457 62.6236 141.772 62.6236C152.713 62.6236 154.901 35.2049 164.529 29.5203C173.186 24.4089 176.853 12.9817 187.285 12.8016C199.406 12.5923 198.794 29.5203 210.917 29.5203C223.041 29.5203 222.426 12.8016 234.549 12.8016C250.742 12.8016 246.803 36.8766 257.306 36.8766C267.809 36.8766 272.186 45.2359 280.938 45.2359C289.691 45.2359 290.128 51.5891 303.695 53.2609C319.151 55.1657 316.441 72.8422 327.327 78.0047C338.213 83.1672 342.206 95.3922 350.959 95.3922C361.462 95.3922 364.525 74.9953 373.716 74.9953C382.906 74.9953 389.033 93.0515 397.348 93.0515C406.538 93.0515 407.413 80.0111 420.104 80.0111" stroke="url(#paint0_linear_53_1515)" stroke-width="2"/>
<defs>
<linearGradient id="paint0_linear_53_1515" x1="420.104" y1="35.2471" x2="0.85503" y2="35.2471" gradientUnits="userSpaceOnUse">
<stop stop-color="#1ED6FF"/>
<stop offset="1" stop-color="#268AFF"/>
</linearGradient>
</defs>
</svg>
