<svg preserveAspectRatio="none" width="100%" height="100%" overflow="visible" style="display: block;" viewBox="0 0 9.99651 10" fill="none" xmlns="http://www.w3.org/2000/svg">
<path id="Vector" d="M6.47922 4.99825L9.69263 1.78484C10.0978 1.37967 10.0978 0.709046 9.69263 0.303877C9.28746 -0.101292 8.61684 -0.101292 8.21167 0.303877L4.99825 3.51729L1.78484 0.303877C1.37967 -0.101292 0.709046 -0.101292 0.303877 0.303877C-0.101292 0.709046 -0.101292 1.37967 0.303877 1.78484L3.51729 4.99825L0.303877 8.21167C-0.101292 8.61684 -0.101292 9.28746 0.303877 9.69263C0.513447 9.9022 0.778903 10 1.04436 10C1.30981 10 1.57527 9.9022 1.78484 9.69263L4.99825 6.47922L8.21167 9.69263C8.42124 9.9022 8.68669 10 8.95215 10C9.2176 10 9.48306 9.9022 9.69263 9.69263C10.0978 9.28746 10.0978 8.61684 9.69263 8.21167L6.47922 4.99825Z" fill="var(--fill-0, #E4EBF6)"/>
</svg>
