<svg preserveAspectRatio="none" width="100%" height="100%" overflow="visible" style="display: block;" viewBox="0 0 420.506 87.6014" fill="none" xmlns="http://www.w3.org/2000/svg">
<path id="Line" d="M0.308879 76.5687C8.76679 73.822 14.7507 72.8906 23.9409 72.8906C33.1311 72.8906 37.9451 70.2156 47.5729 70.2156C56.8712 70.2156 61.0319 75.4914 70.3297 75.5656C79.9546 75.6424 84.7715 70.2156 93.9617 70.2156C106.424 70.2156 105.134 86.7791 117.594 86.6C129.803 86.4245 129.847 72.8906 140.35 70.2156C150.528 67.6237 153.255 59.5156 163.982 59.5156C174.923 59.5156 176.307 70.3958 186.739 70.2156C198.86 70.0063 198.248 54.8344 210.371 54.8344C222.495 54.8344 221.88 70.2156 234.003 70.2156C250.196 70.2156 245.626 48.0168 256.76 35.4406C266.825 24.0719 264.637 1 280.392 1C292.646 1 290.02 6.01562 303.149 9.025C318.145 12.4623 314.09 27.75 326.781 33.7687C337.667 38.9312 338.159 51.1562 350.413 51.1562C364.112 51.1562 361.675 32.8505 373.17 30.7594C382.36 29.0875 384.478 32.7656 396.802 32.7656C409.493 32.7656 416.24 23.876 419.558 14.0406" stroke="url(#paint0_linear_53_1536)" stroke-width="2"/>
<defs>
<linearGradient id="paint0_linear_53_1536" x1="419.558" y1="43.3502" x2="0.308877" y2="43.3502" gradientUnits="userSpaceOnUse">
<stop stop-color="#3DFFDC"/>
<stop offset="1" stop-color="#1ED6FF"/>
</linearGradient>
</defs>
</svg>
