<svg preserveAspectRatio="none" width="100%" height="100%" overflow="visible" style="display: block;" viewBox="0 0 14.8072 14.8072" fill="none" xmlns="http://www.w3.org/2000/svg">
<g id="Volume2Icon" clip-path="url(#clip0_32_1311)">
<g id="Union">
<path d="M11.377 2.65238C11.5918 2.43792 11.9397 2.4379 12.1544 2.65238C13.414 3.91241 14.122 5.62169 14.1221 7.40336C14.122 9.18491 13.4138 10.8933 12.1544 12.1534C11.9397 12.3681 11.5919 12.3688 11.377 12.1543C11.1624 11.9396 11.1623 11.5908 11.377 11.376C12.4302 10.3223 13.0224 8.89317 13.0225 7.40336C13.0224 5.9134 12.4304 4.48346 11.377 3.42972C11.1625 3.21491 11.1623 2.86707 11.377 2.65238Z" fill="var(--fill-0, #94A3B8)"/>
<path fill-rule="evenodd" clip-rule="evenodd" d="M6.44244 2.65531C6.60751 2.52327 6.83395 2.49738 7.02448 2.5889C7.21496 2.68051 7.336 2.87362 7.336 3.085V11.7227C7.33582 11.9338 7.21476 12.1263 7.02448 12.2178C6.83404 12.3093 6.60748 12.2842 6.44244 12.1524L3.50787 9.80472H1.23346C0.929893 9.80472 0.683963 9.55841 0.683655 9.25492V5.55277C0.683705 5.24906 0.929734 5.00297 1.23346 5.00297H3.50787L6.44244 2.65531ZM4.04498 5.98246C3.94749 6.06039 3.82605 6.10258 3.70123 6.10258H1.78326V8.70511H3.70123L3.79401 8.71293C3.88529 8.72855 3.97188 8.76675 4.04498 8.82523L6.23639 10.5782V4.22855L4.04498 5.98246Z" fill="var(--fill-0, #94A3B8)"/>
<path d="M9.1983 4.83109C9.4131 4.61635 9.76089 4.61633 9.97565 4.83109C10.6569 5.51263 11.04 6.43679 11.0401 7.40043C11.04 8.36414 10.657 9.28918 9.97565 9.97074C9.76095 10.1851 9.41302 10.1851 9.1983 9.97074C8.98353 9.75604 8.9837 9.40725 9.1983 9.19242C9.6732 8.71718 9.94041 8.07228 9.94049 7.40043C9.94041 6.7285 9.6733 6.08369 9.1983 5.60843C8.98362 5.39369 8.9837 5.04586 9.1983 4.83109Z" fill="var(--fill-0, #94A3B8)"/>
</g>
</g>
<defs>
<clipPath id="clip0_32_1311">
<rect width="14.8072" height="14.8072" fill="white"/>
</clipPath>
</defs>
</svg>
