<svg preserveAspectRatio="none" width="100%" height="100%" overflow="visible" style="display: block;" viewBox="0 0 10.2857 9.14408" fill="none" xmlns="http://www.w3.org/2000/svg">
<g id="CCTV">
<path d="M2.89122 2.40991C3.15688 2.40991 3.37241 2.62545 3.37241 2.89111C3.37235 3.15671 3.15684 3.3723 2.89122 3.3723H2.88665C2.62103 3.3723 2.40552 3.15671 2.40546 2.89111C2.40546 2.62545 2.62099 2.40991 2.88665 2.40991H2.89122Z" fill="var(--fill-0, #99A1AF)"/>
<path fill-rule="evenodd" clip-rule="evenodd" d="M2.68666 0.00496122C2.93355 0.0229256 3.17453 0.0893316 3.39576 0.200383L3.39526 0.20089L7.96304 2.48656C8.19098 2.60068 8.36459 2.80056 8.44525 3.04237C8.51576 3.25399 8.51031 3.48292 8.43154 3.68954L8.39297 3.77685L8.3549 3.85299H9.32388L9.3853 3.85502C9.52794 3.8642 9.66712 3.90542 9.79238 3.97531C9.9354 4.05516 10.056 4.16997 10.1421 4.30931C10.2282 4.44869 10.2773 4.60806 10.2847 4.77172C10.2921 4.93544 10.2575 5.0987 10.1842 5.2453L9.20561 7.20256C9.13146 7.35076 9.0202 7.47745 8.88279 7.57005C8.74523 7.66267 8.5857 7.71849 8.42037 7.73146C8.25507 7.74442 8.08897 7.71418 7.93867 7.64416C7.78846 7.57412 7.65892 7.46633 7.56255 7.33149L7.00471 6.55234L6.89913 6.76451C6.84262 6.87749 6.76413 6.97818 6.66869 7.06094C6.57323 7.1437 6.46218 7.20679 6.34231 7.24672C6.22254 7.28658 6.09615 7.30288 5.97025 7.29392C5.84422 7.28493 5.72082 7.25098 5.60783 7.19444L4.06476 6.42189L3.58662 7.3863L3.58509 7.38884C3.46409 7.62885 3.27842 7.83036 3.04908 7.97054C2.82053 8.11019 2.55753 8.18296 2.28973 8.1817L0.962387 8.1822V8.6634C0.962289 8.92897 0.746793 9.14408 0.481193 9.14408C0.215593 9.14408 9.79873e-05 8.92897 0 8.6634V6.73913C7.5322e-05 6.47353 0.215579 6.25794 0.481193 6.25794C0.746807 6.25794 0.962311 6.47353 0.962387 6.73913V7.22032H2.29328L2.35978 7.21626C2.42599 7.20748 2.49017 7.18485 2.54758 7.14977C2.62326 7.10348 2.6844 7.03687 2.72473 6.9579L3.2044 5.99145L1.03954 4.90826C0.594217 4.68395 0.255815 4.29212 0.098472 3.81898C-0.0588195 3.34583 -0.0223329 2.8293 0.19999 2.38301L0.863407 1.04247L0.864422 1.03993C0.97548 0.818611 1.12938 0.621226 1.31668 0.459252C1.50397 0.297345 1.72126 0.173753 1.95624 0.0958194C2.19131 0.0178641 2.43966 -0.0129861 2.68666 0.00496122ZM7.49149 5.57878L8.34525 6.77212L9.32337 4.81537H7.8737L7.49149 5.57878ZM2.61662 0.964302C2.49574 0.95554 2.37431 0.970845 2.25927 1.00897C2.14415 1.04715 2.03733 1.1078 1.94558 1.18713C1.85472 1.26575 1.77954 1.36115 1.72529 1.46834L1.7258 1.46884L1.06187 2.81091L1.06137 2.81243C0.952508 3.03101 0.934582 3.28372 1.01162 3.51544C1.0887 3.74716 1.25441 3.93906 1.47251 4.04891L6.03877 6.33408L7.5321 3.34641L2.96482 1.06074L2.96431 1.06024C2.85591 1.00581 2.73759 0.973094 2.61662 0.964302Z" fill="var(--fill-0, #99A1AF)"/>
</g>
</svg>
